<svg width="43" height="41" viewBox="0 0 43 41" fill="none" xmlns="http://www.w3.org/2000/svg">
<g clip-path="url(#clip0_32_19)">
<path d="M21.5 -0.0400391C9.60219 -0.0400391 -0.0419922 9.15557 -0.0419922 20.5C-0.0419922 31.8444 9.60219 41.04 21.5 41.04C33.3978 41.04 43.042 31.8444 43.042 20.5C43.042 9.15557 33.3978 -0.0400391 21.5 -0.0400391ZM21.5 37.8307C11.4613 37.8307 3.32393 30.0717 3.32393 20.5C3.32393 10.9283 11.4613 3.16933 21.5 3.16933C31.5387 3.16933 39.6761 10.9283 39.6761 20.5C39.6761 30.0717 31.5387 37.8307 21.5 37.8307Z" fill="#4A4947"/>
<path d="M11.2102 18.948C10.4213 19.6425 10.6238 21.1419 11.6625 22.3003C12.7012 23.4575 14.1817 23.8323 14.9693 23.1353C15.7569 22.4432 15.5544 20.9414 14.5157 19.7855C13.477 18.6296 11.9965 18.2534 11.2102 18.948Z" fill="#4A4947"/>
<path d="M28.4567 19.5196C27.5324 20.7708 27.4746 22.2839 28.3265 22.9008C29.1772 23.515 30.6157 23.006 31.5387 21.7536C32.4616 20.505 32.5195 18.9931 31.6688 18.3751C30.8181 17.7595 29.3784 18.2722 28.4567 19.5196Z" fill="#4A4947"/>
<path d="M18.9913 19.2287C20.3784 18.9103 21.1002 16.9345 20.602 14.8159C20.1076 12.6972 18.5798 11.2379 17.1926 11.5563C15.8068 11.8773 15.0863 13.853 15.5806 15.9717C16.0789 18.088 17.6054 19.5472 18.9913 19.2287Z" fill="#4A4947"/>
<path d="M25.956 11.5563C24.5701 11.2379 23.0436 12.6972 22.5466 14.8159C22.0496 16.9346 22.7701 18.9104 24.1585 19.2288C25.543 19.5472 27.0708 18.0879 27.5679 15.9717C28.0662 13.8531 27.3418 11.8773 25.956 11.5563Z" fill="#4A4947"/>
<path d="M21.5 21.0215C18.1932 21.0215 15.7108 26.0424 15.7108 27.7036C15.7108 31.788 18.1932 27.5744 21.5 27.5744C24.8082 27.5744 27.2892 31.788 27.2892 27.7036C27.2892 26.0424 24.8082 21.0215 21.5 21.0215Z" fill="#4A4947"/>
</g>
<defs>
<clipPath id="clip0_32_19">
<rect width="43" height="41" fill="white"/>
</clipPath>
</defs>
</svg>
