<svg width="58" height="58" viewBox="0 0 58 58" fill="none" xmlns="http://www.w3.org/2000/svg">
    <path d="M40.4788 17.825C40.49 17.825 40.505 17.825 40.52 17.825C40.9119 17.825 41.2756 17.9469 41.5738 18.1569L41.5681 18.1531C41.7856 18.3425 41.9319 18.6087 41.9675 18.9088V18.9144C42.005 19.1431 42.0257 19.4056 42.0257 19.6737C42.0257 19.7956 42.0219 19.9156 42.0125 20.0356V20.0187C41.5906 24.4606 39.7606 35.2325 38.8306 40.205C38.4369 42.3106 37.6625 43.0156 36.9125 43.0831C35.2831 43.235 34.0457 42.0069 32.4669 40.9719C29.9956 39.35 28.5988 38.3412 26.2006 36.7606C23.4275 34.9362 25.2257 33.9294 26.8044 32.2906C27.2188 31.8594 34.4019 25.325 34.5425 24.7325C34.55 24.6969 34.5538 24.6575 34.5538 24.6162C34.5538 24.47 34.4994 24.3369 34.4113 24.2356C34.3138 24.1719 34.1919 24.1362 34.0644 24.1362C33.98 24.1362 33.8994 24.1531 33.8244 24.1812L33.8281 24.1794C33.5807 24.2356 29.6332 26.8444 21.9856 32.0056C21.1513 32.6637 20.0975 33.08 18.95 33.1287H18.9388C17.3132 32.9319 15.8375 32.57 14.4369 32.0544L14.5757 32.0994C12.8169 31.5256 11.42 31.2237 11.54 30.2525C11.6038 29.7475 12.3 29.2306 13.6288 28.7019C21.8138 25.1356 27.2719 22.785 30.0031 21.65C33.0163 20.0506 36.5094 18.7344 40.1825 17.8812L40.4769 17.8231L40.4788 17.825ZM28.8688 0.921875C13.3025 0.959375 0.696899 13.5875 0.696899 29.1594C0.696899 44.7537 13.3382 57.3969 28.9344 57.3969C44.5307 57.3969 57.1719 44.7556 57.1719 29.1594C57.1719 13.5875 44.5663 0.959375 29.0038 0.921875H29C28.9563 0.921875 28.9125 0.921875 28.8688 0.921875Z" fill="white" fill-opacity="0.9"/>
</svg>
