<svg width="60" height="44" viewBox="0 0 60 44" fill="none" xmlns="http://www.w3.org/2000/svg">
    <path d="M58.7625 7.525C58.4292 6.2398 57.7605 5.06616 56.8249 4.12401C55.8893 3.18186 54.7204 2.50495 53.4375 2.16246C45.66 1.24517 37.8312 0.831809 30 0.924959C22.1691 0.831809 14.3402 1.24517 6.56257 2.16246C5.27977 2.50495 4.11085 3.18186 3.1753 4.12401C2.23971 5.06616 1.57105 6.2398 1.23757 7.525C0.385603 12.3023 -0.0286216 17.1474 6.58889e-05 21.9999C-0.0300466 26.8775 0.384178 31.7477 1.23757 36.5499C1.58834 37.8144 2.26469 38.9645 3.19912 39.8859C4.1335 40.8073 5.29327 41.4673 6.56257 41.7999C14.3402 42.7172 22.1691 43.1308 30 43.0374C37.8312 43.1308 45.66 42.7172 53.4375 41.7999C54.7069 41.4673 55.8668 40.8073 56.8009 39.8859C57.7354 38.9645 58.4119 37.8144 58.7625 36.5499C59.616 31.7477 60.03 26.8775 60 21.9999C60.0289 17.1474 59.6145 12.3023 58.7625 7.525ZM23.85 30.9624V13.1125L39.5625 21.9999L23.85 30.9249V30.9624Z" fill="white"/>
</svg>
