<svg width="259" height="225" viewBox="0 0 259 225" fill="none" xmlns="http://www.w3.org/2000/svg">
    <path d="M218.531 119.862L178.062 105.778V77.5969L218.531 63.5062C223.007 63.5062 226.625 66.6633 226.625 70.5516V112.823C226.625 116.712 223.007 119.862 218.531 119.862ZM141.641 70.5445C121.528 70.5445 105.219 56.3484 105.219 38.8406C105.219 21.3328 121.528 7.13672 141.641 7.13672C161.754 7.13672 178.062 21.3328 178.062 38.8406C178.062 56.3555 161.754 70.5445 141.641 70.5445ZM68.7969 70.5445C48.6839 70.5445 32.375 56.3484 32.375 38.8406C32.375 21.3328 48.6839 7.13672 68.7969 7.13672C88.9098 7.13672 105.219 21.3328 105.219 38.8406C105.219 56.3555 88.9098 70.5445 68.7969 70.5445ZM169.969 70.5445V133.952H124.789C124.369 139.802 121.422 144.844 117.044 147.698H121.609L153.895 210.952H145.849L135.085 189.858H113.555V225H105.486V189.858H83.6165L72.6819 210.952H64.6286L97.4245 147.698H100.476C96.0971 144.844 93.151 139.802 92.7301 133.952H40.4688V70.5445H169.969ZM105.478 149.878C105.146 149.808 104.838 149.66 104.515 149.562L87.2587 182.834H105.478V149.878ZM113.547 149.372V182.841H131.491L114.284 149.126C114.049 149.224 113.806 149.288 113.547 149.372Z" fill="#4A4947"/>
</svg>
